<svg version="1.1" id="Layer_1" xmlns="http://www.w3.org/2000/svg" xmlns:xlink="http://www.w3.org/1999/xlink" x="0px" y="0px"
	 width="100%" viewBox="0 0 347 259" enable-background="new 0 0 347 259" xml:space="preserve">
<path fill="#FDFDFD" opacity="1.000000" stroke="none" 
	d="
M1.000000,98.000000 
	C1.000000,65.333336 1.000000,33.166679 1.000000,1.000013 
	C116.666634,1.000009 232.333267,1.000009 347.999939,1.000004 
	C347.999939,87.333290 347.999939,173.666580 347.999969,259.999908 
	C232.333389,259.999939 116.666794,259.999939 1.000094,259.999969 
	C1.000000,206.166672 1.000000,152.333328 1.000000,98.000000 
M95.138435,82.839790 
	C94.334938,83.807045 93.531441,84.774300 92.990761,85.990112 
	C92.990761,85.990112 92.740211,85.729179 92.072426,85.854469 
	C87.787163,90.606888 83.501900,95.359306 79.079391,100.103516 
	C79.079391,100.103516 79.122894,100.233940 78.484833,100.353645 
	C73.413116,106.592567 68.341408,112.831482 62.914543,119.241417 
	C62.914543,119.241417 62.777542,119.611023 62.132717,119.833054 
	C56.844486,127.576851 51.556255,135.320648 45.936680,143.309998 
	C45.936680,143.309998 45.836258,143.709991 45.194065,143.934875 
	C39.262531,155.077271 32.725586,165.947998 27.569269,177.438278 
	C22.384548,188.991882 18.983555,201.247406 19.745977,214.221710 
	C20.656343,229.713654 28.832754,239.204681 44.162502,240.889236 
	C50.801723,241.618820 57.838779,240.893616 64.424225,239.525360 
	C81.544945,235.968185 97.162140,228.441574 111.872040,219.187149 
	C120.245781,213.919006 128.100174,207.825363 136.640518,201.968933 
	C136.640518,201.968933 136.903763,201.577591 137.667709,201.560959 
	C139.060074,200.906860 140.452438,200.252762 142.370682,199.351624 
	C142.492569,201.566147 142.747772,203.047913 142.618210,204.495209 
	C142.334167,207.667389 143.480988,208.991043 146.824722,208.968491 
	C162.982529,208.859421 179.141739,208.877075 195.299789,208.967804 
	C198.113144,208.983612 199.289703,207.839340 199.274323,205.167297 
	C199.265701,203.668152 199.142487,202.157547 199.282547,200.672043 
	C199.654099,196.731522 198.409729,195.012070 193.998062,195.134827 
	C183.179001,195.435822 172.343277,195.306396 161.519669,195.085037 
	C159.980988,195.053558 157.386322,193.773575 157.155121,192.676392 
	C156.480789,189.476257 156.680679,186.341248 159.801193,183.718567 
	C164.076950,180.124939 167.778336,175.847870 171.884995,171.900360 
	C171.884995,171.900360 171.872986,171.737518 172.537918,171.701462 
	C175.291885,168.765060 178.045837,165.828659 180.922272,162.912125 
	C180.922272,162.912125 180.890869,162.792068 181.537613,162.723816 
	C182.470947,161.544662 183.404297,160.365524 184.743973,159.042221 
	C185.002243,158.872391 185.148865,158.633942 185.847488,158.156860 
	C191.392624,151.999557 197.151337,146.018295 202.416809,139.630478 
	C206.803604,134.308609 210.611588,128.509628 215.025604,122.642586 
	C215.025604,122.642586 215.113419,122.203705 215.724060,122.028641 
	C216.354248,120.988647 216.984421,119.948654 217.986374,118.629410 
	C217.986374,118.629410 218.098206,118.178116 218.736237,117.973824 
	C230.724457,101.849121 240.169830,84.331886 246.810150,65.387566 
	C250.687698,54.325260 253.204880,42.907333 250.746735,31.102882 
	C249.534241,25.280134 247.896683,19.452507 241.651978,16.001020 
	C241.651978,16.001020 241.214951,15.880939 241.022812,15.222944 
	C237.132385,13.501399 233.291504,10.478137 229.341293,10.327823 
	C220.978561,10.009606 212.269592,10.007659 204.216125,11.976513 
	C179.085007,18.120399 157.452805,31.593733 136.773682,46.618866 
	C131.185196,50.679367 126.110710,55.447277 120.363365,60.026020 
	C120.363365,60.026020 120.097107,60.398018 119.438118,60.372086 
	C116.367790,63.288261 113.297462,66.204437 110.090530,69.093048 
	C110.090530,69.093048 110.117500,69.229774 109.447433,69.266586 
	C105.898422,72.786079 102.349411,76.305573 98.976173,79.973305 
	C98.976173,79.973305 98.825714,79.799416 98.176834,79.875519 
	C97.371445,80.843941 96.566055,81.812370 95.968491,82.983192 
	C95.968491,82.983192 95.783241,82.760010 95.138435,82.839790 
M228.343689,180.499939 
	C228.348602,188.493439 228.454422,196.488770 228.309174,204.479538 
	C228.250397,207.713165 229.433472,209.131058 232.674011,208.882431 
	C234.164429,208.768082 235.689850,208.692368 237.164856,208.876160 
	C240.933090,209.345688 242.058716,207.766953 241.989960,204.059723 
	C241.780014,192.739639 241.881424,181.413315 241.917419,170.089600 
	C241.923141,168.288315 242.216431,166.487961 242.486572,163.454193 
	C244.210281,165.434753 245.009583,166.223877 245.660431,167.120728 
	C253.087112,177.354736 260.568939,187.550293 267.856964,197.882446 
	C270.248138,201.272415 271.763763,201.685471 274.326874,197.914139 
	C281.900604,186.770309 289.778412,175.832794 297.579987,164.844879 
	C298.152191,164.038986 299.065948,163.475601 300.297241,162.372894 
	C300.520111,164.297119 300.759644,165.426987 300.765259,166.558014 
	C300.826355,178.870056 301.030151,191.185852 300.785614,203.492462 
	C300.702637,207.668106 301.880493,209.446304 306.098022,208.902618 
	C307.245728,208.754654 308.443420,208.733215 309.589294,208.879776 
	C313.631470,209.396820 315.055176,207.928131 315.025085,203.650620 
	C314.843597,177.839890 314.953156,152.027176 314.929596,126.215141 
	C314.928253,124.753876 314.610657,123.292908 314.272766,120.395973 
	C299.601868,140.852203 285.884796,159.978424 271.409515,180.161865 
	C257.127411,160.028870 243.447159,140.744278 229.766891,121.459679 
	C229.292557,121.694611 228.818237,121.929535 228.343903,122.164467 
	C228.343903,141.276276 228.343903,160.388092 228.343689,180.499939 
z"/>
<path fill="#3D3B3C" opacity="1.000000" stroke="none" 
	d="
M241.214951,15.880939 
	C241.214951,15.880939 241.651978,16.001020 241.813660,16.518883 
	C251.735733,27.859125 251.292648,40.744480 248.478943,53.582191 
	C244.288727,72.700310 235.167450,89.752594 224.650238,106.111572 
	C222.181900,109.950958 220.267471,114.146454 218.098206,118.178116 
	C218.098206,118.178116 217.986374,118.629410 217.468658,118.807068 
	C216.338440,120.057716 215.725937,121.130714 215.113419,122.203705 
	C215.113419,122.203705 215.025604,122.642586 214.522644,122.819458 
	C204.584137,133.995956 195.136642,144.985413 185.749176,156.025940 
	C185.291611,156.564087 185.360245,157.549637 185.183838,158.326843 
	C185.148865,158.633942 185.002243,158.872391 184.189453,159.075134 
	C182.720230,160.336060 181.805557,161.564072 180.890869,162.792068 
	C180.890869,162.792068 180.922272,162.912125 180.510712,162.901382 
	C177.357086,165.839600 174.615036,168.788559 171.872986,171.737518 
	C171.872986,171.737518 171.884995,171.900360 171.465790,171.914490 
	C164.478897,178.103775 154.399445,181.460403 153.924347,192.837204 
	C154.184830,187.671829 155.654037,182.715302 155.776031,177.725830 
	C155.914154,172.076691 155.067581,166.458069 160.227448,161.972443 
	C163.346100,158.812943 166.319977,155.966949 169.625702,153.089325 
	C173.566589,148.960159 177.175613,144.862625 180.885529,140.853210 
	C180.986404,140.941299 180.764084,140.791962 181.115295,140.831024 
	C190.324677,129.865570 199.238678,118.905060 207.982437,107.810364 
	C209.335052,106.094070 209.907227,103.762695 210.888428,101.509178 
	C210.936493,101.302582 211.292236,101.071465 211.633484,101.033615 
	C212.918564,99.216461 213.862381,97.437164 214.827454,95.470093 
	C214.848709,95.282318 215.135513,95.036156 215.485016,95.006454 
	C216.254227,94.721664 216.858154,94.569771 217.067154,94.196648 
	C225.559448,79.036484 233.582230,63.608257 236.540298,46.287106 
	C237.540512,40.430214 238.932465,33.782326 233.133011,28.903973 
	C233.077789,28.907228 233.107422,28.800634 233.073212,28.444851 
	C227.527008,22.306995 220.555817,23.486393 213.965698,24.656794 
	C199.789978,27.174385 186.832092,33.168610 174.290634,40.007195 
	C170.940994,41.833675 168.045547,44.493160 164.812988,46.934052 
	C164.684387,47.097885 164.271835,47.155632 163.903290,47.081657 
	C162.341171,47.944771 161.147598,48.881863 159.812363,49.963463 
	C159.670715,50.107967 159.268372,50.151688 158.896759,50.105171 
	C153.666336,53.639954 148.807526,57.221249 143.842682,60.963940 
	C143.736649,61.125336 143.358612,61.204334 142.990570,61.148224 
	C139.724335,63.629265 136.826111,66.166412 133.804352,68.876221 
	C133.680801,69.048874 133.268341,69.149719 132.914612,69.108337 
	C131.343643,70.322968 130.126389,71.578972 128.917206,72.880066 
	C128.925262,72.925156 128.835114,72.908928 128.488876,72.929306 
	C125.739639,75.214317 123.336639,77.478943 120.779510,80.009583 
	C119.839241,80.899803 119.053085,81.524017 117.906204,82.112030 
	C116.951088,82.338287 116.215050,82.457581 115.783417,82.884575 
	C108.608582,89.982422 101.444351,97.091759 94.369659,104.288879 
	C93.668739,105.001930 93.566772,106.303772 93.064972,107.605743 
	C92.232460,108.559044 91.521790,109.238937 90.472702,109.953491 
	C88.477646,112.091194 86.820999,114.194229 85.083801,116.559578 
	C84.613556,117.190269 84.223846,117.558655 83.487564,117.957253 
	C82.145065,119.416534 81.149132,120.845604 80.069763,122.535538 
	C79.605309,123.183464 79.224304,123.570518 78.493713,123.979034 
	C77.164726,125.455215 76.185326,126.909943 75.156242,128.554977 
	C75.106552,128.745285 74.765366,128.941086 74.442581,128.971191 
	C73.765129,129.702423 73.410446,130.403549 72.982971,131.383606 
	C72.529266,132.088776 72.148354,132.515030 71.430740,132.971420 
	C68.440399,137.052933 65.786766,141.104309 63.074738,145.097778 
	C63.016342,145.039856 63.158134,145.123230 62.803284,145.111420 
	C59.041767,150.866104 55.635105,156.632614 52.197727,162.579590 
	C52.167011,162.760086 51.862709,162.963730 51.521671,163.003479 
	C48.158417,169.762100 45.136196,176.480988 42.098412,183.509369 
	C41.893730,184.180740 41.704617,184.542603 41.186493,184.993576 
	C39.353409,190.568359 37.849339,196.054031 36.405201,201.781097 
	C36.488461,202.369995 36.394249,202.682022 35.861073,203.184814 
	C35.086418,204.998703 34.271454,206.578674 34.237560,208.175201 
	C33.980904,220.265396 37.025921,226.898590 49.627197,226.826767 
	C55.175823,226.795151 60.910637,225.870056 66.221809,224.243393 
	C80.231720,219.952576 93.429161,213.674484 105.871162,205.927246 
	C108.842567,204.077042 111.337318,201.461349 114.177094,199.042847 
	C114.302872,198.887970 114.697441,198.828247 115.032242,198.883270 
	C115.928772,198.361816 116.490494,197.785355 117.157051,197.040787 
	C117.261887,196.872681 117.645737,196.774323 118.013443,196.843048 
	C125.486397,191.859467 132.579681,186.790131 139.712387,181.776932 
	C140.580566,181.166718 141.811707,180.327271 142.602402,180.551987 
	C143.479187,180.801178 144.555069,182.097443 144.650970,183.029694 
	C144.981949,186.246796 145.158646,189.523148 144.896179,192.736282 
	C144.793289,193.995926 143.515869,195.284073 142.523132,196.319305 
	C140.750168,198.168121 138.787262,199.834778 136.903763,201.577591 
	C136.903763,201.577591 136.640518,201.968933 136.050369,202.003448 
	C129.189865,206.020035 122.803291,209.831787 116.670982,214.016174 
	C98.396484,226.485825 78.818085,236.073959 56.812660,239.427612 
	C32.753643,243.094223 19.834515,229.962769 21.323074,208.570709 
	C22.624840,189.863037 30.315895,173.053955 39.405853,156.872650 
	C41.793526,152.622284 43.705715,148.104797 45.836258,143.709991 
	C45.836258,143.709991 45.936680,143.309998 46.429344,143.140778 
	C51.271919,137.012497 55.677395,131.092697 59.935558,125.068764 
	C61.108704,123.409142 61.842274,121.438797 62.777542,119.611023 
	C62.777542,119.611023 62.914543,119.241417 63.424728,119.132614 
	C67.062141,115.495918 70.294373,112.054108 73.280998,108.410942 
	C75.400040,105.826073 77.187462,102.969330 79.122894,100.233940 
	C79.122894,100.233940 79.079391,100.103516 79.485733,100.075989 
	C82.501945,97.773163 85.337227,95.703163 87.653328,93.160294 
	C89.655312,90.962288 91.067375,88.226974 92.740211,85.729179 
	C92.740211,85.729179 92.990761,85.990112 93.226486,85.929062 
	C94.235886,84.832008 95.009560,83.796005 95.783241,82.760010 
	C95.783241,82.760010 95.968491,82.983192 96.228989,82.937546 
	C97.268227,81.861076 98.046974,80.830246 98.825714,79.799416 
	C98.825714,79.799416 98.976173,79.973305 99.245514,79.938614 
	C103.049065,76.345879 106.583282,72.787827 110.117500,69.229774 
	C110.117500,69.229774 110.090530,69.093048 110.510330,69.106750 
	C113.985786,66.212982 117.041443,63.305496 120.097107,60.398018 
	C120.097107,60.398018 120.363365,60.026020 120.943733,59.987862 
	C122.238083,59.559223 123.032600,59.268044 123.654327,58.763809 
	C141.606995,44.203526 160.631348,31.279182 181.734131,21.710348 
	C196.730118,14.910567 212.065521,8.950513 229.077271,12.035228 
	C233.219406,12.786315 237.174088,14.571326 241.214951,15.880939 
z"/>
<path fill="#575757" opacity="1.000000" stroke="none" 
	d="
M228.343796,179.999924 
	C228.343903,160.388092 228.343903,141.276276 228.343903,122.164467 
	C228.818237,121.929535 229.292557,121.694611 229.766891,121.459679 
	C243.447159,140.744278 257.127411,160.028870 271.409515,180.161865 
	C285.884796,159.978424 299.601868,140.852203 314.272766,120.395973 
	C314.610657,123.292908 314.928253,124.753876 314.929596,126.215141 
	C314.953156,152.027176 314.843597,177.839890 315.025085,203.650620 
	C315.055176,207.928131 313.631470,209.396820 309.589294,208.879776 
	C308.443420,208.733215 307.245728,208.754654 306.098022,208.902618 
	C301.880493,209.446304 300.702637,207.668106 300.785614,203.492462 
	C301.030151,191.185852 300.826355,178.870056 300.765259,166.558014 
	C300.759644,165.426987 300.520111,164.297119 300.297241,162.372894 
	C299.065948,163.475601 298.152191,164.038986 297.579987,164.844879 
	C289.778412,175.832794 281.900604,186.770309 274.326874,197.914139 
	C271.763763,201.685471 270.248138,201.272415 267.856964,197.882446 
	C260.568939,187.550293 253.087112,177.354736 245.660431,167.120728 
	C245.009583,166.223877 244.210281,165.434753 242.486572,163.454193 
	C242.216431,166.487961 241.923141,168.288315 241.917419,170.089600 
	C241.881424,181.413315 241.780014,192.739639 241.989960,204.059723 
	C242.058716,207.766953 240.933090,209.345688 237.164856,208.876160 
	C235.689850,208.692368 234.164429,208.768082 232.674011,208.882431 
	C229.433472,209.131058 228.250397,207.713165 228.309174,204.479538 
	C228.454422,196.488770 228.348602,188.493439 228.343796,179.999924 
z"/>
<path fill="#605F60" opacity="1.000000" stroke="none" 
	d="
M137.285736,201.569275 
	C138.787262,199.834778 140.750168,198.168121 142.523132,196.319305 
	C143.515869,195.284073 144.793289,193.995926 144.896179,192.736282 
	C145.158646,189.523148 144.981949,186.246796 144.650970,183.029694 
	C144.555069,182.097443 143.479187,180.801178 142.602402,180.551987 
	C141.811707,180.327271 140.580566,181.166718 139.712387,181.776932 
	C132.579681,186.790131 125.486397,191.859467 118.124512,196.522430 
	C124.368446,191.220551 130.728775,186.105438 137.422348,181.471664 
	C141.419098,178.704803 142.879211,175.462601 142.764221,170.623383 
	C142.459610,157.803207 142.573151,144.970337 142.684219,132.143936 
	C142.766983,122.584251 140.358734,122.641617 152.457108,122.633965 
	C156.044006,122.631691 156.988556,124.128342 156.933426,127.470078 
	C156.771286,137.296021 156.869308,147.126236 156.865753,156.954788 
	C156.865082,158.847794 156.865662,160.740784 156.865662,162.758926 
	C158.477936,162.521896 159.280304,162.403931 160.082687,162.285965 
	C155.067581,166.458069 155.914154,172.076691 155.776031,177.725830 
	C155.654037,182.715302 154.184830,187.671829 153.924347,192.837204 
	C154.399445,181.460403 164.478897,178.103775 171.386230,171.896164 
	C167.778336,175.847870 164.076950,180.124939 159.801193,183.718567 
	C156.680679,186.341248 156.480789,189.476257 157.155121,192.676392 
	C157.386322,193.773575 159.980988,195.053558 161.519669,195.085037 
	C172.343277,195.306396 183.179001,195.435822 193.998062,195.134827 
	C198.409729,195.012070 199.654099,196.731522 199.282547,200.672043 
	C199.142487,202.157547 199.265701,203.668152 199.274323,205.167297 
	C199.289703,207.839340 198.113144,208.983612 195.299789,208.967804 
	C179.141739,208.877075 162.982529,208.859421 146.824722,208.968491 
	C143.480988,208.991043 142.334167,207.667389 142.618210,204.495209 
	C142.747772,203.047913 142.492569,201.566147 142.370682,199.351624 
	C140.452438,200.252762 139.060074,200.906860 137.285736,201.569275 
z"/>
<path fill="#605F60" opacity="1.000000" stroke="none" 
	d="
M45.515163,143.822433 
	C43.705715,148.104797 41.793526,152.622284 39.405853,156.872650 
	C30.315895,173.053955 22.624840,189.863037 21.323074,208.570709 
	C19.834515,229.962769 32.753643,243.094223 56.812660,239.427612 
	C78.818085,236.073959 98.396484,226.485825 116.670982,214.016174 
	C122.803291,209.831787 129.189865,206.020035 135.824341,202.070709 
	C128.100174,207.825363 120.245781,213.919006 111.872040,219.187149 
	C97.162140,228.441574 81.544945,235.968185 64.424225,239.525360 
	C57.838779,240.893616 50.801723,241.618820 44.162502,240.889236 
	C28.832754,239.204681 20.656343,229.713654 19.745977,214.221710 
	C18.983555,201.247406 22.384548,188.991882 27.569269,177.438278 
	C32.725586,165.947998 39.262531,155.077271 45.515163,143.822433 
z"/>
<path fill="#605F60" opacity="1.000000" stroke="none" 
	d="
M241.118881,15.551943 
	C237.174088,14.571326 233.219406,12.786315 229.077271,12.035228 
	C212.065521,8.950513 196.730118,14.910567 181.734131,21.710348 
	C160.631348,31.279182 141.606995,44.203526 123.654327,58.763809 
	C123.032600,59.268044 122.238083,59.559223 121.162201,59.920094 
	C126.110710,55.447277 131.185196,50.679367 136.773682,46.618866 
	C157.452805,31.593733 179.085007,18.120399 204.216125,11.976513 
	C212.269592,10.007659 220.978561,10.009606 229.341293,10.327823 
	C233.291504,10.478137 237.132385,13.501399 241.118881,15.551943 
z"/>
<path fill="#605F60" opacity="1.000000" stroke="none" 
	d="
M218.417221,118.075974 
	C220.267471,114.146454 222.181900,109.950958 224.650238,106.111572 
	C235.167450,89.752594 244.288727,72.700310 248.478943,53.582191 
	C251.292648,40.744480 251.735733,27.859125 241.942505,16.705288 
	C247.896683,19.452507 249.534241,25.280134 250.746735,31.102882 
	C253.204880,42.907333 250.687698,54.325260 246.810150,65.387566 
	C240.169830,84.331886 230.724457,101.849121 218.417221,118.075974 
z"/>
<path fill="#605F60" opacity="1.000000" stroke="none" 
	d="
M185.515656,158.241852 
	C185.360245,157.549637 185.291611,156.564087 185.749176,156.025940 
	C195.136642,144.985413 204.584137,133.995956 214.347809,122.959152 
	C210.611588,128.509628 206.803604,134.308609 202.416809,139.630478 
	C197.151337,146.018295 191.392624,151.999557 185.515656,158.241852 
z"/>
<path fill="#605F60" opacity="1.000000" stroke="none" 
	d="
M62.455132,119.722038 
	C61.842274,121.438797 61.108704,123.409142 59.935558,125.068764 
	C55.677395,131.092697 51.271919,137.012497 46.595016,143.018005 
	C51.556255,135.320648 56.844486,127.576851 62.455132,119.722038 
z"/>
<path fill="#605F60" opacity="1.000000" stroke="none" 
	d="
M78.803864,100.293793 
	C77.187462,102.969330 75.400040,105.826073 73.280998,108.410942 
	C70.294373,112.054108 67.062141,115.495918 63.602303,119.047112 
	C68.341408,112.831482 73.413116,106.592567 78.803864,100.293793 
z"/>
<path fill="#605F60" opacity="1.000000" stroke="none" 
	d="
M92.406319,85.791824 
	C91.067375,88.226974 89.655312,90.962288 87.653328,93.160294 
	C85.337227,95.703163 82.501945,97.773163 79.554352,100.080093 
	C83.501900,95.359306 87.787163,90.606888 92.406319,85.791824 
z"/>
<path fill="#605F60" opacity="1.000000" stroke="none" 
	d="
M109.782471,69.248184 
	C106.583282,72.787827 103.049065,76.345879 99.157623,79.864494 
	C102.349411,76.305573 105.898422,72.786079 109.782471,69.248184 
z"/>
<path fill="#605F60" opacity="1.000000" stroke="none" 
	d="
M119.767609,60.385052 
	C117.041443,63.305496 113.985786,66.212982 110.578629,69.120537 
	C113.297462,66.204437 116.367790,63.288261 119.767609,60.385052 
z"/>
<path fill="#605F60" opacity="1.000000" stroke="none" 
	d="
M172.205444,171.719482 
	C174.615036,168.788559 177.357086,165.839600 180.449463,162.891449 
	C178.045837,165.828659 175.291885,168.765060 172.205444,171.719482 
z"/>
<path fill="#605F60" opacity="1.000000" stroke="none" 
	d="
M181.214233,162.757935 
	C181.805557,161.564072 182.720230,160.336060 183.986282,159.147217 
	C183.404297,160.365524 182.470947,161.544662 181.214233,162.757935 
z"/>
<path fill="#605F60" opacity="1.000000" stroke="none" 
	d="
M98.501274,79.837463 
	C98.046974,80.830246 97.268227,81.861076 96.125076,82.836349 
	C96.566055,81.812370 97.371445,80.843941 98.501274,79.837463 
z"/>
<path fill="#605F60" opacity="1.000000" stroke="none" 
	d="
M95.460838,82.799896 
	C95.009560,83.796005 94.235886,84.832008 93.095078,85.804787 
	C93.531441,84.774300 94.334938,83.807045 95.460838,82.799896 
z"/>
<path fill="#605F60" opacity="1.000000" stroke="none" 
	d="
M215.418732,122.116173 
	C215.725937,121.130714 216.338440,120.057716 217.282776,118.946693 
	C216.984421,119.948654 216.354248,120.988647 215.418732,122.116173 
z"/>
<path fill="#FCFCFC" opacity="1.000000" stroke="none" 
	d="
M160.227448,161.972443 
	C159.280304,162.403931 158.477936,162.521896 156.865662,162.758926 
	C156.865662,160.740784 156.865082,158.847794 156.865753,156.954788 
	C156.869308,147.126236 156.771286,137.296021 156.933426,127.470078 
	C156.988556,124.128342 156.044006,122.631691 152.457108,122.633965 
	C140.358734,122.641617 142.766983,122.584251 142.684219,132.143936 
	C142.573151,144.970337 142.459610,157.803207 142.764221,170.623383 
	C142.879211,175.462601 141.419098,178.704803 137.422348,181.471664 
	C130.728775,186.105438 124.368446,191.220551 117.756805,196.453705 
	C117.645737,196.774323 117.261887,196.872681 116.843925,197.026306 
	C115.849785,197.729370 115.273613,198.278809 114.697441,198.828247 
	C114.697441,198.828247 114.302872,198.887970 113.826233,199.030029 
	C99.031975,208.305786 84.468323,217.125671 68.005539,221.729233 
	C60.805164,223.742737 53.048859,224.418564 45.537548,224.463806 
	C39.535191,224.499969 37.085724,221.406906 36.422062,215.283722 
	C35.981018,211.214462 36.237976,207.069580 36.182503,202.958542 
	C36.394249,202.682022 36.488461,202.369995 36.688126,201.548294 
	C38.445908,195.684219 39.980705,190.294342 41.515503,184.904465 
	C41.704617,184.542603 41.893730,184.180740 42.402931,183.350601 
	C45.769585,176.242798 48.816143,169.603256 51.862709,162.963730 
	C51.862709,162.963730 52.167011,162.760086 52.513481,162.445572 
	C56.292679,156.461777 59.725407,150.792511 63.158134,145.123230 
	C63.158134,145.123230 63.016342,145.039856 63.397133,145.011963 
	C66.441093,140.969818 69.104263,136.955551 71.767441,132.941284 
	C72.148354,132.515030 72.529266,132.088776 73.288773,131.319199 
	C74.033363,130.297623 74.399361,129.619354 74.765366,128.941086 
	C74.765366,128.941086 75.106552,128.745285 75.477509,128.456970 
	C76.846741,126.764977 77.845009,125.361267 78.843285,123.957565 
	C79.224304,123.570518 79.605309,123.183464 80.392258,122.449234 
	C81.810181,120.710388 82.822159,119.318710 83.834137,117.927032 
	C84.223846,117.558655 84.613556,117.190269 85.419563,116.492744 
	C87.494278,114.082016 89.152695,112.000420 90.811111,109.918823 
	C91.521790,109.238937 92.232460,108.559044 93.391617,107.507187 
	C101.982384,98.806236 110.124664,90.477242 118.266937,82.148239 
	C119.053085,81.524017 119.839241,80.899803 121.112213,79.991928 
	C124.011055,77.441826 126.423080,75.175377 128.835114,72.908920 
	C128.835114,72.908928 128.925262,72.925156 129.250031,72.865891 
	C130.805984,71.587654 132.037155,70.368683 133.268341,69.149719 
	C133.268341,69.149719 133.680801,69.048874 134.143021,68.910248 
	C137.523026,66.249191 140.440826,63.726761 143.358612,61.204334 
	C143.358612,61.204334 143.736649,61.125336 144.189148,60.976791 
	C149.517212,57.269386 154.392792,53.710533 159.268372,50.151684 
	C159.268372,50.151688 159.670715,50.107967 160.147400,49.999825 
	C161.839996,48.979668 163.055923,48.067650 164.271835,47.155632 
	C164.271835,47.155632 164.684387,47.097885 165.164246,46.941635 
	C177.410995,41.087269 188.910904,34.718342 201.026657,29.896894 
	C211.272964,25.819397 222.208145,22.653715 233.107422,28.800634 
	C233.107422,28.800634 233.077789,28.907228 233.142365,29.298182 
	C233.639969,35.891525 235.753876,42.569599 234.160873,48.198635 
	C230.698898,60.431961 225.441513,72.168427 220.708405,84.024307 
	C219.189087,87.829987 217.011795,91.372986 215.135529,95.036163 
	C215.135513,95.036156 214.848709,95.282318 214.503891,95.570740 
	C213.203461,97.596603 212.247849,99.334030 211.292236,101.071465 
	C211.292236,101.071465 210.936493,101.302582 210.566071,101.616096 
	C204.802490,109.311630 199.494064,116.757584 193.988876,124.055092 
	C189.707779,129.729980 185.181427,135.219864 180.764084,140.791962 
	C180.764084,140.791962 180.986404,140.941299 180.551910,140.904755 
	C176.509583,144.952454 172.901718,149.036713 169.293854,153.120956 
	C166.319977,155.966949 163.346100,158.812943 160.227448,161.972443 
z"/>
<path fill="#605F60" opacity="1.000000" stroke="none" 
	d="
M35.861073,203.184814 
	C36.237976,207.069580 35.981018,211.214462 36.422062,215.283722 
	C37.085724,221.406906 39.535191,224.499969 45.537548,224.463806 
	C53.048859,224.418564 60.805164,223.742737 68.005539,221.729233 
	C84.468323,217.125671 99.031975,208.305786 113.700447,199.184906 
	C111.337318,201.461349 108.842567,204.077042 105.871162,205.927246 
	C93.429161,213.674484 80.231720,219.952576 66.221809,224.243393 
	C60.910637,225.870056 55.175823,226.795151 49.627197,226.826767 
	C37.025921,226.898590 33.980904,220.265396 34.237560,208.175201 
	C34.271454,206.578674 35.086418,204.998703 35.861073,203.184814 
z"/>
<path fill="#605F60" opacity="1.000000" stroke="none" 
	d="
M233.073212,28.444851 
	C222.208145,22.653715 211.272964,25.819397 201.026657,29.896894 
	C188.910904,34.718342 177.410995,41.087269 165.292847,46.777802 
	C168.045547,44.493160 170.940994,41.833675 174.290634,40.007195 
	C186.832092,33.168610 199.789978,27.174385 213.965698,24.656794 
	C220.555817,23.486393 227.527008,22.306995 233.073212,28.444851 
z"/>
<path fill="#605F60" opacity="1.000000" stroke="none" 
	d="
M215.485016,95.006454 
	C217.011795,91.372986 219.189087,87.829987 220.708405,84.024307 
	C225.441513,72.168427 230.698898,60.431961 234.160873,48.198635 
	C235.753876,42.569599 233.639969,35.891525 233.197586,29.294926 
	C238.932465,33.782326 237.540512,40.430214 236.540298,46.287106 
	C233.582230,63.608257 225.559448,79.036484 217.067154,94.196648 
	C216.858154,94.569771 216.254227,94.721664 215.485016,95.006454 
z"/>
<path fill="#605F60" opacity="1.000000" stroke="none" 
	d="
M181.115295,140.831024 
	C185.181427,135.219864 189.707779,129.729980 193.988876,124.055092 
	C199.494064,116.757584 204.802490,109.311630 210.518005,101.822693 
	C209.907227,103.762695 209.335052,106.094070 207.982437,107.810364 
	C199.238678,118.905060 190.324677,129.865570 181.115295,140.831024 
z"/>
<path fill="#605F60" opacity="1.000000" stroke="none" 
	d="
M117.906204,82.112030 
	C110.124664,90.477242 101.982384,98.806236 93.513458,107.233788 
	C93.566772,106.303772 93.668739,105.001930 94.369659,104.288879 
	C101.444351,97.091759 108.608582,89.982422 115.783417,82.884575 
	C116.215050,82.457581 116.951088,82.338287 117.906204,82.112030 
z"/>
<path fill="#605F60" opacity="1.000000" stroke="none" 
	d="
M51.521667,163.003479 
	C48.816143,169.603256 45.769585,176.242798 42.418503,183.041107 
	C45.136196,176.480988 48.158417,169.762100 51.521667,163.003479 
z"/>
<path fill="#605F60" opacity="1.000000" stroke="none" 
	d="
M62.803284,145.111420 
	C59.725407,150.792511 56.292679,156.461777 52.544197,162.265076 
	C55.635105,156.632614 59.041767,150.866104 62.803284,145.111420 
z"/>
<path fill="#605F60" opacity="1.000000" stroke="none" 
	d="
M158.896759,50.105171 
	C154.392792,53.710533 149.517212,57.269386 144.295166,60.815392 
	C148.807526,57.221249 153.666336,53.639954 158.896759,50.105171 
z"/>
<path fill="#605F60" opacity="1.000000" stroke="none" 
	d="
M169.625702,153.089325 
	C172.901718,149.036713 176.509583,144.952454 180.451050,140.816650 
	C177.175613,144.862625 173.566589,148.960159 169.625702,153.089325 
z"/>
<path fill="#605F60" opacity="1.000000" stroke="none" 
	d="
M41.186493,184.993576 
	C39.980705,190.294342 38.445908,195.684219 36.628189,201.306900 
	C37.849339,196.054031 39.353409,190.568359 41.186493,184.993576 
z"/>
<path fill="#605F60" opacity="1.000000" stroke="none" 
	d="
M71.430733,132.971420 
	C69.104263,136.955551 66.441093,140.969818 63.455528,145.069885 
	C65.786766,141.104309 68.440399,137.052933 71.430733,132.971420 
z"/>
<path fill="#605F60" opacity="1.000000" stroke="none" 
	d="
M142.990570,61.148224 
	C140.440826,63.726761 137.523026,66.249191 134.266571,68.737595 
	C136.826111,66.166412 139.724335,63.629265 142.990570,61.148224 
z"/>
<path fill="#605F60" opacity="1.000000" stroke="none" 
	d="
M128.488876,72.929306 
	C126.423080,75.175377 124.011055,77.441826 121.266327,79.725922 
	C123.336639,77.478943 125.739639,75.214317 128.488876,72.929306 
z"/>
<path fill="#605F60" opacity="1.000000" stroke="none" 
	d="
M90.472702,109.953491 
	C89.152695,112.000420 87.494278,114.082016 85.500107,116.230438 
	C86.820999,114.194229 88.477646,112.091194 90.472702,109.953491 
z"/>
<path fill="#605F60" opacity="1.000000" stroke="none" 
	d="
M211.633484,101.033615 
	C212.247849,99.334030 213.203461,97.596603 214.482635,95.758514 
	C213.862381,97.437164 212.918564,99.216461 211.633484,101.033615 
z"/>
<path fill="#605F60" opacity="1.000000" stroke="none" 
	d="
M78.493698,123.979027 
	C77.845009,125.361267 76.846741,126.764977 75.527199,128.266663 
	C76.185326,126.909943 77.164726,125.455215 78.493698,123.979027 
z"/>
<path fill="#605F60" opacity="1.000000" stroke="none" 
	d="
M83.487564,117.957253 
	C82.822159,119.318710 81.810181,120.710388 80.475708,122.188370 
	C81.149132,120.845604 82.145065,119.416534 83.487564,117.957253 
z"/>
<path fill="#605F60" opacity="1.000000" stroke="none" 
	d="
M132.914612,69.108337 
	C132.037155,70.368683 130.805984,71.587654 129.241974,72.820801 
	C130.126389,71.578972 131.343643,70.322968 132.914612,69.108337 
z"/>
<path fill="#605F60" opacity="1.000000" stroke="none" 
	d="
M163.903290,47.081657 
	C163.055923,48.067650 161.839996,48.979668 160.289047,49.855320 
	C161.147598,48.881863 162.341171,47.944771 163.903290,47.081657 
z"/>
<path fill="#605F60" opacity="1.000000" stroke="none" 
	d="
M115.032242,198.883270 
	C115.273613,198.278809 115.849785,197.729370 116.739090,197.194427 
	C116.490494,197.785355 115.928772,198.361816 115.032242,198.883270 
z"/>
<path fill="#605F60" opacity="1.000000" stroke="none" 
	d="
M74.442581,128.971191 
	C74.399361,129.619354 74.033363,130.297623 73.361565,131.040283 
	C73.410446,130.403549 73.765129,129.702423 74.442581,128.971191 
z"/>
</svg>